<?xml version="1.0" encoding="utf-8"?>
<!-- Generator: Adobe Illustrator 20.1.0, SVG Export Plug-In . SVG Version: 6.00 Build 0)  -->
<svg version="1.1" id="Layer_1" xmlns="http://www.w3.org/2000/svg" xmlns:xlink="http://www.w3.org/1999/xlink" x="0px" y="0px"
	 viewBox="0 0 180 180" style="enable-background:new 0 0 180 180;" xml:space="preserve">
<style type="text/css">
	.Arched_x0020_Green{fill:url(#SVGID_1_);stroke:#FFFFFF;stroke-width:0.25;stroke-miterlimit:1;}
	.st0{opacity:0.39;fill:url(#SVGID_2_);}
	.st1{opacity:0.6;fill:#0072BC;}
	.st2{opacity:0.94;fill:#8DC63F;}
	.st3{opacity:0.59;fill:url(#SVGID_3_);}
	.st4{opacity:0.6;fill:#8DC63F;}
	.st5{opacity:0.2;fill:#8DC63F;}
	.st6{fill:#283A97;}
	.st7{fill:#0072BC;}
	.st8{fill:#8DC63F;}
</style>
<linearGradient id="SVGID_1_" gradientUnits="userSpaceOnUse" x1="-216" y1="486" x2="-215.2929" y2="485.2929">
	<stop  offset="0" style="stop-color:#20AC4B"/>
	<stop  offset="0.9831" style="stop-color:#19361A"/>
</linearGradient>
<g>
	
		<radialGradient id="SVGID_2_" cx="1216.3557" cy="1208.6271" r="407.7639" gradientTransform="matrix(0.207 0 0 0.207 -161.1228 -160.5945)" gradientUnits="userSpaceOnUse">
		<stop  offset="0" style="stop-color:#FFFFFF"/>
		<stop  offset="0.9382" style="stop-color:#8DC63F"/>
	</radialGradient>
	<path class="st0" d="M175.1,89.6c0,46.6-37.8,84.4-84.4,84.4C44,174,6.3,136.2,6.3,89.6C6.3,43,44,5.2,90.7,5.2
		C137.3,5.2,175.1,43,175.1,89.6z"/>
	<path class="st1" d="M12.4,116.3c-4.4-9.8-8.8-43.9,4-63.7c0,0,36.3-44.7,47.6-36c7.9,6.1-41.1,73.5-22.7,99.7
		c42.9,61.2,82.2,44.6,80.5,47.2C115.4,173,44.4,188,12.4,116.3z"/>
	<path class="st2" d="M56.1,52.4c0,44.3,0.6,10.2-3.5,5.2c-24.5-29.7-40.7,51.1-42,42.9c-4.4-28,2.6-63.9,32.1-79.7
		c14.3-7.7,19.8-7.4,18.6,9.9C60.8,39.3,56.1,8.1,56.1,52.4z"/>
	
		<radialGradient id="SVGID_3_" cx="1282.4021" cy="1130.7216" r="315.5123" gradientTransform="matrix(0.207 0 0 0.207 -161.1228 -160.5945)" gradientUnits="userSpaceOnUse">
		<stop  offset="0" style="stop-color:#FFFFFF"/>
		<stop  offset="0.9382" style="stop-color:#8DC63F"/>
	</radialGradient>
	<path class="st3" d="M167.3,86c0,21.3-8.1,40.7-21.2,55.1c0,0-11-0.6-11.9-8.2c-0.7-6.3,11.2-21.2,2.4-26.3
		C97.5,84,47.9,84.6,47.9,55.8c0-31.5-18.6-28.5,7-41.6c10.4-5.3,22.2-8.3,34.6-8.3C132.5,5.8,167.3,41.7,167.3,86z"/>
	<path class="st4" d="M167.3,86c1,10.7-4.2,38.7-21.2,55.1c0,0-46.3-23.1-38.7-23.3c17.1-0.4,43.3-9.1,39.4-40.8
		C137.4,1.2,70.1,23,76.6,18.7C86,12.6,159-4.5,167.3,86z"/>
	<path class="st5" d="M143.8,44.4c31.3,48.2,8.5,113-23.9,125.2c0,0-35,6.1-60.4-0.9c-18.7-5.1-30-26.6-33.2-29.7
		c-3.2-3.1,49.2,23.6,70.8,8.7c28-19.2,42.2-75.2,24.5-99.4c-45-61.8-93.8-2.3-90.7-9.4C35.4,28.6,94.4-31.9,143.8,44.4z"/>
	<g>
		<g>
			<path class="st6" d="M84.6,37c0,0,3.4-8,2.8-12.2c-0.5-4.1-12.6-16.6-22-14.6c-9.5,2-18.3,13.9-17.1,32.6
				c0.1,1.6-3.7,2.7-6.5,4.8c-2.5,1.8-13.6,9.9-14.9,30.2c-1.4,20.3,7.3,46.4,29.2,63.4c6.3,4.9,18.6,4.5,21.6,4.8
				c0,0-30.8-20.3-25.2-48.7c1.5-7.8,9.8-8.8,12.4-7.1c3.2,2.2,25.3,22.7,29,25.6c3.6,3,8.4,3.3,8.2-2.7c-0.2-7.1,0.7-4.1-1.2-5.4
				c-1.9-1.2-11.8-15.8-19.3-35.5c-7.2-19-12.5-15.4-14.6-19.5c-1.8-3.5,1.7-1.3,4.3-1c2.5,0.3,6.5-0.7,9.8-7.3c0.5-1,1.1,0,2.7-0.3
				c1.3-0.2,1.4-1.4,1.3-2.8C84.9,40.1,84.5,39.1,84.6,37z"/>
			<path class="st6" d="M22.5,94.9c0,0,4.1,27.8,29.1,49.3c0,0-19.4,2.2-29.6-9C22,135.1,19.6,103.8,22.5,94.9z"/>
		</g>
		<path class="st7" d="M108,93.7c-2.3-2.6-4.8-4.1-6.6-7.3c-1.5-2.6-2.8-4.5-3.1-6c-0.3-1.2-2-7.3,0.2-10.8
			c7.9-12.4,26.7-8,28.6-7.2c3.1,1.3,3.3,6.5,3.7,9.6c1.5,4.1,1,6.6,1,9.5c0.1,5.7-2.7,8.8-6,11.8c0,0,8.9,2.8,15.3,5.3
			c6.5,2.5,12.6,4.5,16.4,9.8c1.7,2.3,4.7,7,3.9,15.4c-0.9,10.2-14.4,16.3-16.6,17.3c-2.2,1,4.9-8.8,3-15.8
			c-5.1-17.9-29-5.2-33.2-4.5c-6,1-12.2-1.6-17.5,0c-6.1,1.8-15.2,6.5-10.2,14.1c2.9,4.5,22,11.4,24.3,11.8c0,0-26,1.6-33.2-4.9
			c-4.7-4.3-17.4-13-1.7-27.9C87.2,103.8,105.4,90.8,108,93.7z"/>
		<path class="st8" d="M92.9,130l22.4,27.6c0,0,12.5-6,24.2-2.8c0,0,2.5-5.8,20.1-5.8l-22.4-27.5c0,0-16.7-0.7-21.9,4.2
			C115.4,125.9,97,125.5,92.9,130z"/>
	</g>
</g>
</svg>
